# xmcd
#
# Track frame offsets: 
#        150
#        24177
#        40282
#        58602
#        75277
#        100767
#        119225
#        141012
#        157066
#        177865
#        192860
#        213875
#        245116
#        265709
#        293122
#
# Disc length: 4279 seconds
#
# Revision: 2
# Processed by: cddbd v1.5.2PL0 Copyright (c) Steve Scherf et al.
# Submitted via: ExactAudioCopy v1.3
#
DISCID=cf10b50f
DTITLE=Queens Of The Stone Age - Era Vulgaris [CD 1 - Tour Edition)
DYEAR=2007
DGENRE=Stoner
TTITLE0=Turnin' on the Screw
TTITLE1=Sick, Sick, Sick
TTITLE2=I'm Designer
TTITLE3=Into the Hollow
TTITLE4=Misfit Love
TTITLE5=Battery Acid
TTITLE6=Make It Wit Chu
TTITLE7=3's and 7's
TTITLE8=Suture Up Your Future
TTITLE9=River in the Road
TTITLE10=Run, Pig, Run
TTITLE11=The Fun Machine Took A Shit and Died
TTITLE12=Make It Wit Chu (Acoustic)
TTITLE13=Era Vulgaris (Richard File Remix)
TTITLE14=I'm Designer (UNKLE Remix)
EXTD=
EXTT0=
EXTT1=
EXTT2=
EXTT3=
EXTT4=
EXTT5=
EXTT6=
EXTT7=
EXTT8=
EXTT9=
EXTT10=
EXTT11=
EXTT12=
EXTT13=
EXTT14=
PLAYORDER=
